<svg width="700" height="316" viewBox="0 0 700 316" fill="none" xmlns="http://www.w3.org/2000/svg">
<path d="M243.391 144.269C242.639 124.948 257.777 108.739 277.102 107.987H278.498C296.32 107.987 306.841 118.4 309.955 130.637L298.789 134.394C296.749 124.948 288.053 118.4 278.498 119.151C267.01 119.151 255.415 127.524 255.415 144.484C255.415 161.444 266.688 169.495 278.605 169.495C288.268 169.71 296.857 163.377 299.433 154.145L310.277 157.687C306.412 171.857 293.207 181.518 278.498 180.766C259.387 181.088 243.605 165.953 243.283 146.846C243.283 145.987 243.283 145.128 243.391 144.269Z" fill="#E6E6E6"/>
<path d="M331.964 179.156H320.262V107.773H331.964V135.789C335.292 131.818 340.338 129.563 345.599 129.778C357.409 129.778 363.207 138.258 363.207 148.778V179.156H351.826V150.71C352.578 145.665 349.035 140.942 343.989 140.19C343.345 140.083 342.593 140.083 341.949 140.19C336.473 140.19 331.964 144.699 331.964 150.173C331.964 150.495 331.964 150.71 331.964 151.032V179.156Z" fill="#E6E6E6"/>
<path d="M388.544 151.676L400.891 149.744C403.682 149.422 404.434 147.919 404.434 146.309C404.434 142.23 401.75 139.01 395.308 139.01C390.369 138.58 385.967 142.23 385.431 147.168V147.597L375.016 145.236C375.875 136.97 383.391 129.563 395.2 129.563C410.016 129.563 415.599 137.936 415.599 147.705V171.535C415.599 174.111 415.707 176.687 416.243 179.264H405.615C405.185 177.224 405.078 175.184 405.185 173.145C401.964 178.083 396.274 180.981 390.369 180.766C382.102 181.41 374.909 175.399 374.05 167.134V166.382C373.943 157.473 380.277 152.857 388.544 151.676ZM404.326 159.405V157.258L391.765 159.083C388.222 159.19 385.431 162.089 385.323 165.631C385.323 169.173 388.222 171.964 391.765 171.857H392.302C398.314 172.608 403.789 168.207 404.434 162.196C404.434 162.089 404.434 162.089 404.434 161.981C404.648 161.122 404.541 160.264 404.326 159.405Z" fill="#E6E6E6"/>
<path d="M435.032 106.807C439.111 106.807 442.547 110.027 442.654 114.213C442.654 118.292 439.326 121.62 435.246 121.727C431.167 121.727 427.838 118.4 427.731 114.321C427.624 110.134 430.952 106.807 435.032 106.807ZM429.449 179.371V131.174H440.937V179.156L429.449 179.371Z" fill="#E6E6E6"/>
<path d="M466.917 179.156H455.43V131.174H466.595V137.614C469.601 132.676 474.97 129.671 480.767 129.778C492.47 129.778 498.052 138.258 498.052 148.778V179.156H486.672V150.71C486.672 144.806 483.988 140.083 476.795 140.083C471.212 140.083 466.703 144.699 466.703 150.281C466.703 150.71 466.703 151.032 466.703 151.462L466.917 179.156Z" fill="#E6E6E6"/>
<path d="M523.498 107.773H512.117V179.156H523.498V107.773Z" fill="#E6E6E6"/>
<path d="M544.004 106.807C548.083 106.807 551.412 110.134 551.519 114.213C551.519 118.292 548.191 121.62 544.111 121.727C540.031 121.727 536.703 118.4 536.596 114.321V114.213C536.596 110.134 539.817 106.807 544.004 106.807ZM538.314 179.371V131.174H549.694V179.156L538.314 179.371Z" fill="#E6E6E6"/>
<path d="M575.89 179.156H564.51V131.174H575.675V137.614C578.682 132.676 584.05 129.671 589.847 129.778C601.55 129.778 607.24 138.258 607.24 148.778V179.156H595.859V150.71C596.611 145.665 593.068 140.942 588.022 140.191C587.378 140.083 586.626 140.083 585.982 140.191C580.399 140.191 575.89 144.699 575.998 150.281C575.998 150.71 575.998 151.14 575.998 151.462L575.89 179.156Z" fill="#E6E6E6"/>
<path d="M646.212 151.354L666.397 179.156H652.332L638.268 159.298L632.363 165.524V179.156H620.982V107.773H632.363V150.495L650.829 131.174H665.967L646.212 151.354Z" fill="#E6E6E6"/>
<path d="M107.899 88.4509L157.393 116.897V173.896L108.114 202.45L58.6203 174.326V117.112L107.899 88.4509ZM107.899 46.5869L89.7553 57.1066L40.3688 85.7673L22.2246 96.287V195.15L40.3688 205.563L89.8626 233.901L108.007 244.314L126.151 233.794L175.43 205.133L193.574 194.614V95.6429L175.43 85.2306L125.936 56.7845L107.899 46.5869Z" fill="white"/>
</svg>
