<svg width="700" height="253" viewBox="0 0 700 253" fill="none" xmlns="http://www.w3.org/2000/svg">
<path d="M111.746 139.059C109.739 140.287 107.397 140.51 105.613 139.505C103.383 138.166 102.045 135.153 102.045 131.023V118.412C102.045 112.386 99.7035 108.033 95.6894 106.917C88.8877 104.908 83.7585 113.278 81.8629 116.403L69.8205 135.711V111.939C69.709 106.47 67.925 103.234 64.5799 102.23C62.3498 101.56 59.0047 101.895 55.7711 106.805L28.8988 149.884C25.3306 143.077 23.4351 135.488 23.4351 127.787C23.4351 101.783 44.2862 80.6899 69.8205 80.6899C95.3549 80.6899 116.206 101.783 116.206 127.787V127.898V128.01C116.429 133.032 114.868 137.05 111.746 139.059ZM126.464 127.787V127.675V127.564C126.353 95.9797 100.93 70.1991 69.8205 70.1991C38.5996 70.1991 13.1768 95.9797 13.1768 127.787C13.1768 159.482 38.5996 185.375 69.8205 185.375C84.2045 185.375 97.8079 179.906 108.289 169.973C110.408 167.964 110.519 164.728 108.512 162.607C106.617 160.487 103.383 160.375 101.265 162.273C101.265 162.273 101.265 162.273 101.153 162.384C92.6788 170.42 81.3054 174.995 69.5975 174.995C55.8826 174.995 43.6172 168.969 35.143 159.371L59.3392 120.533V138.501C59.3392 147.094 62.6843 149.885 65.4719 150.666C68.2595 151.447 72.4966 150.889 77.0683 143.635L90.3372 122.095C90.7832 121.425 91.1177 120.756 91.5637 120.309V131.247C91.5637 139.282 94.7973 145.755 100.373 148.88C105.39 151.782 111.746 151.447 116.987 148.21C123.454 143.969 126.91 136.604 126.464 127.787ZM205.409 108.145C206.747 108.926 207.973 110.823 207.973 112.497C207.973 115.176 205.743 117.408 203.179 117.408C202.51 117.408 201.952 117.184 201.395 117.073C198.384 114.841 194.593 113.39 190.579 113.39C181.101 113.39 174.634 121.091 174.634 130.689C174.634 140.287 181.213 147.876 190.579 147.876C195.262 147.876 199.499 145.978 202.621 142.965C203.402 142.407 204.405 142.072 205.409 142.072C207.973 142.072 209.98 144.081 209.98 146.648C209.98 148.322 208.977 149.773 207.75 150.554C203.179 154.46 197.046 157.027 190.69 157.027C176.195 157.027 164.376 145.086 164.376 130.354C164.376 115.622 176.195 103.68 190.69 103.68C196.043 103.569 201.172 105.243 205.409 108.145ZM231.947 119.305C241.87 119.305 250.122 127.675 250.122 138.054C250.122 148.322 241.759 157.139 231.947 157.139C221.577 157.139 212.991 148.434 212.991 138.054C212.991 127.675 221.577 119.305 231.947 119.305ZM231.835 147.876C236.184 147.876 239.863 143.746 239.863 138.166C239.863 132.586 236.184 129.015 231.835 129.015C227.152 129.015 223.249 132.474 223.249 138.166C223.249 143.635 227.152 147.876 231.835 147.876ZM256.366 151.335V124.997C256.366 122.095 258.596 119.751 261.495 119.751C264.283 119.751 266.624 122.095 266.624 124.997V151.335C266.624 154.237 264.283 156.581 261.495 156.581C258.708 156.581 256.366 154.125 256.366 151.335ZM255.585 109.819C255.585 106.359 258.262 103.68 261.495 103.68C264.84 103.68 267.516 106.47 267.516 109.819C267.516 113.167 264.84 115.845 261.495 115.845C258.15 115.734 255.585 113.055 255.585 109.819ZM286.249 137.05V151.335C286.249 154.237 283.907 156.581 281.12 156.581C278.332 156.581 275.991 154.237 275.991 151.335V123.769C275.991 121.537 277.775 119.751 280.005 119.751C282.235 119.751 283.907 121.649 283.907 123.769C288.033 119.863 291.713 119.305 295.169 119.305C305.428 119.305 309.999 127.006 309.999 135.822V151.335C309.999 154.237 307.658 156.581 304.87 156.581C302.082 156.581 299.741 154.237 299.741 151.335V137.05C299.741 132.586 299.183 128.791 292.716 128.791C288.144 128.791 286.249 132.586 286.249 137.05ZM343.227 142.519C342.001 142.519 341.22 141.961 340.551 141.179L328.62 128.233V151.335C328.62 154.237 326.279 156.581 323.491 156.581C320.703 156.581 318.362 154.237 318.362 151.335V105.578C318.696 104.796 319.477 104.238 320.257 104.238C321.149 104.238 321.93 105.02 322.488 105.578L341.555 127.006C342.112 127.675 342.781 128.01 343.227 128.01C343.562 128.01 344.342 127.675 344.9 127.006L363.967 105.578C364.524 105.02 365.193 104.238 366.197 104.238C367.089 104.238 367.869 104.796 368.092 105.578V151.335C368.092 154.237 365.862 156.581 362.963 156.581C360.176 156.581 357.834 154.237 357.834 151.335V128.233L345.903 141.179C345.011 141.961 344.231 142.519 343.227 142.519ZM392.512 147.876C397.083 147.876 400.986 143.746 400.986 138.166C400.986 132.586 396.972 128.903 392.512 128.903C388.052 128.903 384.372 132.697 384.372 138.166C384.372 143.523 387.94 147.876 392.512 147.876ZM403.439 152.563L403.216 151.335C401.209 155.242 394.853 157.027 390.839 157.027C381.25 157.027 374.114 148.322 374.114 137.943C374.114 127.675 381.361 119.193 391.397 119.193C393.069 119.193 398.867 119.64 403.328 124.885L403.551 123.658C403.551 121.425 405.223 119.64 407.453 119.64C409.683 119.64 411.467 121.537 411.467 123.658V152.451C411.467 154.684 409.683 156.469 407.453 156.469C405.112 156.581 403.439 154.684 403.439 152.563ZM439.678 128.791H438.563C432.096 129.126 430.869 132.809 430.869 137.05V151.335C430.869 154.237 428.527 156.581 425.74 156.581C422.952 156.581 420.611 154.237 420.611 151.335V123.769C420.611 121.537 422.395 119.751 424.625 119.751C426.855 119.751 428.527 121.649 428.527 123.769C432.319 120.198 435.441 119.417 438.563 119.305H439.566C442.019 119.305 444.249 121.425 444.249 124.104C444.361 126.559 442.131 128.791 439.678 128.791ZM479.262 148.88C479.708 149.661 480.042 150.443 480.042 151.335C480.042 154.014 477.589 156.469 474.913 156.469C473.129 156.469 471.568 155.13 470.341 153.567L458.522 139.84V151.224C458.522 154.125 456.18 156.469 453.393 156.469C450.605 156.469 448.264 154.125 448.264 151.224V109.372C448.264 106.47 450.494 104.127 453.393 104.127C456.292 104.127 458.522 106.47 458.522 109.372V135.488L470.341 122.43C471.568 121.091 473.017 119.64 474.801 119.64C477.366 119.64 479.708 121.983 479.708 124.662C479.708 125.443 479.485 126.336 479.038 127.006L469.672 137.273L479.262 148.88ZM499.332 128.903C496.545 128.903 491.973 130.354 491.973 134.706H506.803C506.691 130.354 502.008 128.903 499.332 128.903ZM512.713 141.291H491.973C491.973 147.429 497.883 148.434 500.447 148.434C502.343 148.434 505.019 148.099 507.137 147.094C507.806 146.648 508.81 146.313 509.813 146.313C512.044 146.313 513.939 148.21 513.939 150.554C513.939 152.117 512.936 153.456 511.709 154.237C508.587 156.581 504.461 157.139 500.559 157.139C490.189 157.139 481.603 151.559 481.603 138.501C481.603 128.233 486.844 119.305 499.109 119.305C509.033 119.305 516.504 125.778 516.727 137.273C516.727 139.394 514.943 141.291 512.713 141.291ZM541.257 157.027H538.47C530.665 157.027 526.093 153.567 526.093 141.403V128.791H523.417C520.964 128.791 518.845 126.559 518.845 124.104C518.845 121.425 521.075 119.305 523.417 119.305H526.093V109.595C526.093 106.694 528.323 104.35 531.222 104.35C534.01 104.35 536.351 106.694 536.351 109.595V119.305H540.588C543.042 119.305 545.16 121.425 545.16 124.104C545.16 126.559 542.93 128.791 540.588 128.791H536.351V139.394C536.351 146.425 536.686 147.876 539.808 147.876H541.257C543.711 147.876 545.829 149.885 545.829 152.451C545.829 154.907 543.711 157.027 541.257 157.027ZM590.877 108.145C592.215 108.926 593.441 110.823 593.441 112.497C593.441 115.176 591.211 117.408 588.646 117.408C587.977 117.408 587.42 117.184 586.862 117.073C583.852 114.841 580.061 113.39 576.047 113.39C566.569 113.39 560.102 121.091 560.102 130.689C560.102 140.287 566.68 147.876 576.047 147.876C580.73 147.876 584.967 145.978 588.089 142.965C588.869 142.407 589.873 142.072 590.877 142.072C593.441 142.072 595.448 144.081 595.448 146.648C595.448 148.322 594.445 149.773 593.218 150.554C588.646 154.46 582.514 157.027 576.158 157.027C561.663 157.027 549.843 145.086 549.843 130.354C549.843 115.622 561.663 103.68 576.158 103.68C581.51 103.569 586.751 105.243 590.877 108.145ZM616.857 147.876C621.428 147.876 625.331 143.746 625.331 138.166C625.331 132.586 621.317 128.903 616.857 128.903C612.285 128.903 608.717 132.697 608.717 138.166C608.717 143.523 612.397 147.876 616.857 147.876ZM627.784 152.563L627.561 151.335C625.554 155.242 619.198 157.027 615.184 157.027C605.595 157.027 598.459 148.322 598.459 137.943C598.459 127.675 605.706 119.193 615.742 119.193C617.414 119.193 623.213 119.64 627.673 124.885L627.896 123.658C627.896 121.425 629.568 119.64 631.798 119.64C634.028 119.64 635.812 121.537 635.812 123.658V152.451C635.812 154.684 634.028 156.469 631.798 156.469C629.457 156.581 627.784 154.684 627.784 152.563ZM663.8 147.876C668.371 147.876 671.94 143.523 671.94 138.166C671.94 132.586 668.26 128.903 663.8 128.903C659.228 128.903 655.326 132.586 655.326 138.166C655.326 143.746 659.228 147.876 663.8 147.876ZM655.326 154.014V167.072C655.326 169.973 652.984 172.317 650.196 172.317C647.409 172.317 645.067 169.973 645.067 167.072V123.769C645.067 121.537 646.851 119.751 649.081 119.751C651.311 119.751 652.984 121.649 652.984 124.216C656.775 120.309 661.458 119.305 665.026 119.305C674.95 119.305 682.309 127.675 682.309 138.054C682.309 148.322 675.285 157.139 665.584 157.139C662.573 157.027 658.113 156.134 655.326 154.014Z" fill="#E6E6E6"/>
</svg>
