<svg width="700" height="225" viewBox="0 0 700 225" fill="none" xmlns="http://www.w3.org/2000/svg">
<g clip-path="url(#clip0_39_165)">
<path d="M131.204 65.3852C131.186 68.5065 128.328 70.7138 125.237 70.3875C117.577 69.5782 110.558 69.6455 103.997 70.3314C89.7141 71.8252 77.8449 76.247 66.9024 80.3243L66.8784 80.3327C66.2162 80.5797 65.5575 80.8253 64.9018 81.0688C53.2825 85.3818 42.576 89.0928 29.8733 89.3868C24.806 89.5047 19.3468 89.0767 13.3354 87.8628C8.1795 86.8216 4.0603 82.8713 3.03868 77.6889C2.22915 73.5828 1.80469 69.3373 1.80469 64.9923C1.80469 29.098 30.7721 0 66.5052 0C102.239 0 131.206 29.098 131.206 64.9923C131.206 65.1234 131.205 65.2544 131.204 65.3852Z" fill="url(#paint0_radial_39_165)"/>
<path d="M7.56826 97.683C2.70966 96.5106 -1.72417 101.755 0.668575 106.161L64.1771 223.119C65.1989 225 67.8887 225 68.9105 223.119L139.007 94.0288C141.493 89.4498 139.101 83.7145 134.01 82.6929C122.933 80.4701 113.496 80.2309 105.096 81.1093C92.2082 82.4572 81.5045 86.4405 70.3927 90.5746C69.8041 90.7942 69.2142 91.0131 68.6229 91.2327C56.9904 95.5514 44.7822 99.8799 30.1051 100.22C23.1292 100.382 15.6988 99.6448 7.56826 97.683Z" fill="url(#paint1_linear_39_165)"/>
<path d="M7.56826 97.683C2.70966 96.5106 -1.72417 101.755 0.668575 106.161L64.1771 223.119C65.1989 225 67.8887 225 68.9105 223.119L139.007 94.0288C141.493 89.4498 139.101 83.7145 134.01 82.6929C122.933 80.4701 113.496 80.2309 105.096 81.1093C92.2082 82.4572 81.5045 86.4405 70.3927 90.5746C69.8041 90.7942 69.2142 91.0131 68.6229 91.2327C56.9904 95.5514 44.7822 99.8799 30.1051 100.22C23.1292 100.382 15.6988 99.6448 7.56826 97.683Z" fill="url(#paint2_linear_39_165)"/>
<path d="M66.5273 94.2716C66.5273 92.9153 67.3707 91.7028 68.6374 91.2327C69.2288 91.0131 69.8186 90.7942 70.4074 90.5746C81.5192 86.4405 92.2229 82.4572 105.111 81.1093C113.511 80.2309 122.948 80.4701 134.024 82.6929C139.116 83.7145 141.508 89.4498 139.021 94.0288L68.925 223.119C68.4085 224.07 67.4655 224.54 66.5273 224.53V94.2716Z" fill="url(#paint3_linear_39_165)"/>
<path fill-rule="evenodd" clip-rule="evenodd" d="M270.619 56.6109C264.401 54.8299 258.628 53.9395 252.853 53.9395C242.193 53.9395 232.422 56.6109 223.539 61.063C214.656 65.9603 207.993 72.6385 203.107 81.5431C198.221 90.4471 196 100.242 196 111.817C196 123.393 198.666 133.187 203.552 142.092C208.436 150.996 215.543 157.674 223.982 162.572C232.422 167.469 241.749 170.141 252.41 170.141C262.18 170.141 271.064 168.36 279.06 163.908C287.054 159.901 293.272 153.668 298.159 145.208C303.045 136.749 305.266 126.955 305.266 115.379V110.482C305.266 109.86 305.266 109.142 305.267 108.372L305.267 107.449C305.268 106.419 304.435 105.584 303.407 105.584H257.37C256.343 105.584 255.51 106.419 255.51 107.449V123.754C255.51 124.784 256.343 125.619 257.37 125.619H278.382C279.14 125.619 279.722 126.295 279.586 127.042C279.145 129.446 278.526 131.63 277.726 133.633C275.95 138.53 272.84 141.647 268.398 144.318C264.401 146.544 259.073 147.88 252.41 147.88C247.079 147.88 241.749 146.099 237.306 143.428C232.422 140.311 228.868 136.304 226.202 130.962C223.539 125.619 222.205 119.386 222.205 112.263C222.205 105.139 223.539 98.9062 226.202 93.5638C228.868 88.2207 232.422 83.7687 237.306 81.0976C242.193 77.9808 247.523 76.6456 253.297 76.6456C258.628 76.6456 263.957 77.9808 268.398 80.2072C272.346 82.1858 275.944 85.5713 278.878 89.7384C279.484 90.5986 280.666 90.8463 281.534 90.2534L298.058 78.9596C298.865 78.4088 299.113 77.3227 298.581 76.5017C295.546 71.8112 291.482 67.8524 287.054 64.6247C281.723 61.063 276.84 58.3916 270.619 56.6109ZM412.882 60.2153L432.704 54.9825C433.883 54.6711 435.037 55.5629 435.037 56.7856V166.495C435.037 167.525 434.204 168.359 433.177 168.359H413.356C412.329 168.359 411.496 167.525 411.496 166.495V62.0183C411.496 61.1715 412.066 60.431 412.882 60.2153ZM646.7 106.474C649.809 104.693 652.918 103.803 656.472 103.803C660.469 103.803 663.578 105.139 666.243 106.474C668.908 107.81 671.129 110.481 672.906 114.043C674.682 117.604 675.571 121.612 675.571 126.509C675.571 131.407 674.682 135.413 672.906 138.975C671.573 142.537 669.353 145.208 666.243 146.989C663.578 148.77 660.025 149.66 656.472 149.66C652.918 149.66 649.365 148.77 646.7 146.989C644.035 145.208 641.814 142.537 640.037 138.975C638.261 135.413 637.372 131.407 637.372 126.509C637.372 121.612 638.261 117.604 640.037 114.043C641.37 110.927 643.59 108.255 646.7 106.474ZM678.68 88.2207C672.461 84.6591 664.91 82.8783 656.472 82.8783C648.477 82.8783 640.926 84.6591 634.263 88.2207C627.6 91.7823 622.715 97.1247 618.717 103.803C614.72 110.481 612.943 118.05 612.943 126.509C612.943 134.968 615.164 142.537 618.717 149.215C622.271 155.894 627.6 161.236 634.263 164.798C640.926 168.359 648.477 170.14 656.472 170.14C664.467 170.14 672.017 168.359 678.68 164.798C685.343 161.236 690.228 155.894 694.226 149.215C698.223 142.537 700 134.968 700 126.509C700 118.05 697.779 110.481 694.226 103.803C690.673 97.1247 685.343 91.7823 678.68 88.2207ZM510.562 159.873C510.738 159.591 511.248 159.72 511.248 160.053V166.495C511.248 167.526 512.082 168.36 513.108 168.36H532.928C533.956 168.36 534.789 167.526 534.789 166.495V87.4145C534.789 86.3852 533.956 85.5502 532.928 85.5502H513.108C512.082 85.5502 511.248 86.3852 511.248 87.4145V94.5805C511.248 95.193 510.44 95.4491 510.068 94.9643C508.822 93.3386 507.434 91.8286 505.918 90.4478C501.033 85.5502 494.37 83.3239 486.375 83.3239C479.269 83.3239 473.05 85.1054 467.275 89.1125C461.945 92.6741 457.504 98.0165 454.395 104.695C451.286 111.373 449.954 118.941 449.954 126.955C449.954 134.969 451.286 142.538 454.395 149.216C457.504 155.894 461.502 160.792 467.275 164.799C472.606 168.805 479.269 170.586 486.375 170.586C494.815 170.586 501.033 167.915 506.363 164.353C508.397 162.994 509.798 161.1 510.562 159.873ZM502.366 146.545C499.256 148.326 496.146 149.216 492.593 149.216C489.04 149.216 485.932 148.326 482.822 146.545C480.157 144.764 477.936 142.093 476.159 138.531C474.827 134.969 473.938 130.962 473.938 126.51C473.938 122.058 474.382 118.496 476.159 114.934C477.936 111.818 480.157 109.147 482.822 107.366C485.932 105.585 489.04 104.695 492.593 104.695C496.146 104.695 499.7 105.585 502.366 107.366C505.03 109.147 507.251 111.372 509.028 114.934C510.36 118.051 511.248 122.058 511.248 126.51C511.248 130.962 510.804 134.969 509.028 138.531C507.251 142.093 505.03 144.764 502.366 146.545ZM586.478 103.804C586.135 103.804 585.857 104.082 585.857 104.425V136.304C585.857 143.873 588.966 147.879 595.185 147.879H602.209C603.236 147.879 604.069 148.714 604.069 149.744V166.495C604.069 167.525 603.236 168.36 602.209 168.36H592.076C582.748 168.36 575.198 165.688 570.312 160.346C564.982 155.003 562.316 147.434 562.316 137.639V104.425C562.316 104.082 562.038 103.804 561.696 103.804H547.953C546.678 103.804 545.782 102.548 546.192 101.338L551.126 86.8132C551.382 86.0575 552.091 85.5495 552.887 85.5495H561.696C562.038 85.5495 562.316 85.271 562.316 84.9279V62.6401C562.316 61.7932 562.885 61.0527 563.702 60.837L584.301 55.3989C585.088 55.1913 585.857 55.7858 585.857 56.6009V84.9279C585.857 85.271 586.135 85.5495 586.478 85.5495H602.711C603.985 85.5495 604.882 86.8055 604.471 88.0151L599.537 102.54C599.281 103.296 598.573 103.804 597.777 103.804H586.478ZM357.489 82.8783C365.483 82.8783 372.146 84.6591 377.92 88.2207C383.695 91.7823 388.58 97.1247 391.689 103.803C395.242 110.481 396.574 118.05 396.574 126.509V130.433C396.574 131.462 395.742 132.297 394.715 132.297H342.001C341.249 132.297 340.668 132.963 340.798 133.706C341.186 135.934 341.733 137.891 342.385 139.42C344.164 142.982 346.384 145.654 349.048 146.989C351.714 148.325 355.268 149.66 359.71 149.66C363.707 149.66 367.704 148.77 370.369 147.434C372.939 146.33 375.204 144.314 377.167 141.889C377.843 141.054 379.067 140.882 379.899 141.559L393.407 152.536C394.184 153.168 394.328 154.305 393.694 155.081C389.908 159.722 385.354 163.257 379.696 165.688C373.479 168.359 366.815 169.695 359.71 169.695C351.269 169.695 343.72 167.914 337.057 164.352C330.394 160.79 325.508 155.448 321.956 148.77C318.401 142.091 316.625 134.523 316.625 126.064C316.625 117.604 318.401 110.036 321.956 103.358C325.508 96.6798 330.394 91.7823 336.613 87.7759C342.83 84.6591 349.493 82.8783 357.489 82.8783ZM342.525 116.715C341.742 116.715 341.154 115.996 341.339 115.235C342.119 112.032 343.248 109.409 344.606 107.365C347.272 103.357 351.714 101.132 357.489 101.132C362.818 101.132 367.259 103.357 369.925 107.365C371.253 109.361 372.359 112.021 373.136 115.233C373.32 115.996 372.733 116.715 371.949 116.715H342.525Z" fill="#E6E6E6"/>
</g>
<defs>
<radialGradient id="paint0_radial_39_165" cx="0" cy="0" r="1" gradientUnits="userSpaceOnUse" gradientTransform="translate(105.733 18.9561) rotate(149.731) scale(112.728 135.366)">
<stop offset="0.116813" stop-color="white"/>
<stop offset="0.734375" stop-color="#ADADAD"/>
<stop offset="1" stop-color="#8B8B8B"/>
</radialGradient>
<linearGradient id="paint1_linear_39_165" x1="69.9985" y1="84.0633" x2="69.9985" y2="224.53" gradientUnits="userSpaceOnUse">
<stop stop-color="#565656"/>
<stop offset="0.46875" stop-color="#727272"/>
<stop offset="1" stop-color="#151515"/>
</linearGradient>
<linearGradient id="paint2_linear_39_165" x1="69.9985" y1="84.0633" x2="69.9985" y2="224.53" gradientUnits="userSpaceOnUse">
<stop stop-color="#BABABA"/>
<stop offset="0.5" stop-color="#919191"/>
<stop offset="1" stop-color="#9D9D9D"/>
</linearGradient>
<linearGradient id="paint3_linear_39_165" x1="103.27" y1="80.635" x2="103.27" y2="233.885" gradientUnits="userSpaceOnUse">
<stop stop-color="#F0F0F0"/>
<stop offset="0.197917" stop-color="#CBCBCB"/>
<stop offset="1" stop-color="#ACACAC"/>
</linearGradient>
<clipPath id="clip0_39_165">
<rect width="700" height="224.528" fill="white"/>
</clipPath>
</defs>
</svg>
