<svg width="696" height="220" viewBox="0 0 696 220" fill="none" xmlns="http://www.w3.org/2000/svg">
<path fill-rule="evenodd" clip-rule="evenodd" d="M181.764 71.8272L168.147 47.6463L194.529 47.6541C195.234 47.6541 196.056 48.1227 196.441 48.7553C196.862 49.4465 199.003 52.9768 201.577 57.2179C204.658 62.2946 208.341 68.3633 210.448 71.8272H181.764ZM132.968 218.276C132.329 219.42 131.5 219.42 131.231 219.42H120.452C114.747 219.416 108.166 219.412 104.249 219.412L146.169 144.187C146.866 142.937 146.85 141.414 146.126 140.18C145.402 138.946 144.085 138.188 142.66 138.188L71.2118 138.282L57.0062 113.695H161.067C161.075 113.695 161.083 113.691 161.095 113.691C161.106 113.691 161.114 113.695 161.122 113.695C161.18 113.695 161.235 113.675 161.293 113.671C161.527 113.656 161.76 113.632 161.982 113.578C162.154 113.539 162.321 113.484 162.489 113.421C162.578 113.386 162.664 113.351 162.75 113.312C163.528 112.965 164.218 112.394 164.658 111.586L181.811 79.8875H210.129L132.968 218.276ZM97.267 215.417C96.3558 213.918 95.172 211.969 93.883 209.848C89.5489 202.698 83.996 193.544 83.3691 192.541C83.1588 192.201 83.0614 191.373 83.5015 190.584C84.5061 188.78 103.478 154.621 108.1 146.295L135.803 146.26L97.267 215.417ZM50.0242 168.34L36.2548 143.886L50.1332 117.881L64.0545 141.972C59.7282 150.115 52.9759 162.814 50.0242 168.34ZM31.5429 172.148C24.5336 172.148 17.5632 172.144 16.5391 172.144C15.8538 172.144 15.0204 171.663 14.6427 171.046L10.1606 163.662C6.96749 158.398 2.8943 151.684 0.635742 147.971H29.3194L42.9331 172.152C39.9619 172.152 35.7563 172.148 31.5429 172.148ZM78.116 1.52593C78.7546 0.377808 79.5801 0.377808 79.8488 0.377808L106.948 0.381713L64.9151 75.6074C64.88 75.6699 64.8606 75.7363 64.8294 75.8027C64.7671 75.9277 64.7126 76.0565 64.662 76.1893C64.6191 76.3182 64.5802 76.4431 64.5451 76.572C64.514 76.6931 64.4867 76.8141 64.4673 76.9352C64.4439 77.0875 64.4283 77.2359 64.4244 77.3843C64.4205 77.4507 64.405 77.5132 64.405 77.5835C64.405 77.6342 64.4166 77.6811 64.4205 77.7319C64.4244 77.8803 64.44 78.0248 64.4634 78.1692C64.4789 78.2903 64.4984 78.4114 64.5296 78.5324C64.5607 78.6613 64.6036 78.7824 64.6464 78.9073C64.6892 79.0284 64.7321 79.1533 64.7866 79.2705C64.8411 79.3877 64.9034 79.497 64.9696 79.6103C65.0358 79.7196 65.0981 79.8289 65.176 79.9344C65.25 80.0398 65.3356 80.1375 65.4252 80.239C65.5109 80.3327 65.5965 80.4303 65.69 80.5202C65.7835 80.6061 65.8808 80.6803 65.9821 80.7584C66.095 80.8482 66.2079 80.9302 66.3286 81.0044C66.3754 81.0317 66.4104 81.0669 66.4571 81.0942C66.5039 81.1216 66.5545 81.1294 66.6051 81.1528C66.8115 81.2582 67.0296 81.3481 67.2593 81.4184C67.3411 81.4418 67.419 81.473 67.5046 81.4926C67.7967 81.5629 68.0965 81.6058 68.412 81.6058C68.4158 81.6058 68.4158 81.6097 68.4197 81.6097H68.4275L70.2071 81.6058C70.2149 81.6058 70.2227 81.6097 70.2305 81.6097L139.884 81.516C141.726 84.7182 145.168 90.744 148.1 95.8754C150.351 99.8196 152.212 103.073 153.676 105.631H50.032C49.9852 105.631 49.9424 105.646 49.8996 105.65C48.4899 105.674 47.1309 106.419 46.4144 107.759L29.2571 139.906H0.95895C13.3109 117.748 77.2904 3.0021 78.116 1.52593ZM113.875 4.47435L116.391 8.61386C120.811 15.9009 127.053 26.1872 127.715 27.2572C127.925 27.597 128.022 28.421 127.578 29.2137L102.98 73.5025L75.2889 73.5377L113.875 4.47435ZM161.048 51.4304L174.825 75.8964L160.779 101.846C159.105 98.9253 157.025 95.2857 155.074 91.8687C151.219 85.1166 148.408 80.1999 146.823 77.4507C149.817 71.9717 157.734 57.4756 161.048 51.4304Z" fill="#E6E6E6"/>
<path fill-rule="evenodd" clip-rule="evenodd" d="M238.982 172.815V112.509H248.96V136.184C250.359 134.32 254.182 130.685 260.616 130.685C268.449 130.685 275.163 134.04 275.163 147.369V172.815H265.186V149.327C265.186 142.616 263.787 138.98 257.726 138.98C253.25 138.98 250.732 140.751 248.96 142.709V172.815H238.982ZM302.765 173.748C294.746 173.748 288.218 170.206 288.218 162.003C288.218 152.496 296.704 149.979 305.19 149.979C309.479 149.979 314.049 150.725 316.473 151.47V148.115C316.473 142.802 315.541 138.608 307.894 138.608C302.113 138.608 298.756 140.938 298.756 145.785H289.337C289.337 134.506 298.569 130.685 308.547 130.685C319.271 130.685 326.451 135.252 326.451 146.81V163.867C326.451 165.452 327.01 166.011 328.689 166.011C329.808 166.011 331.486 165.732 332.605 165.452V172.07C330.927 172.815 327.756 173.748 324.679 173.748C319.457 173.748 317.965 171.044 317.965 167.969V167.223C315.82 169.926 311.251 173.748 302.765 173.748ZM305.097 166.291C310.319 166.291 314.422 164.52 316.473 162.842V157.622C314.701 157.156 310.878 156.783 307.335 156.783C301.833 156.783 298.196 157.809 298.196 161.724C298.196 164.893 300.527 166.291 305.097 166.291ZM343.422 172.815V131.617H352.095V137.209C354.053 134.506 357.876 130.685 364.87 130.685C372.703 130.685 379.603 134.04 379.603 147.369V172.815H369.626V149.327C369.626 142.616 368.227 138.98 362.166 138.98C357.69 138.98 355.172 140.751 353.4 142.709V172.815H343.422ZM409.63 173.748C400.491 173.748 392.378 167.409 392.378 152.216C392.378 137.023 400.678 130.685 409.63 130.685C416.157 130.685 420.26 134.04 421.939 135.904V112.509H431.916V172.815H423.244V167.409C421.099 170.299 416.623 173.748 409.63 173.748ZM412.707 165.452C416.903 165.452 419.98 163.681 421.939 161.817V142.616C419.98 140.751 416.903 138.98 412.707 138.98C405.62 138.98 402.636 144.293 402.636 152.216C402.636 160.139 405.62 165.452 412.707 165.452ZM465.673 173.748C454.669 173.748 445.624 170.019 445.344 159.859H455.136C455.509 164.24 459.985 166.104 466.232 166.104C471.921 166.104 476.397 165.265 476.397 161.444C476.397 157.343 470.149 156.69 461.85 155.199C453.83 153.801 446.09 151.47 446.09 142.802C446.09 134.32 454.856 130.685 465.02 130.685C475.184 130.685 483.857 133.388 484.603 143.734H474.811C474.159 139.26 469.403 138.328 465.113 138.328C459.425 138.328 456.255 139.446 456.255 142.243C456.255 145.971 461.197 146.624 470.988 148.208C478.635 149.42 486.654 151.937 486.654 160.419C486.654 170.392 477.236 173.748 465.673 173.748ZM500.082 172.815V112.509H510.06V136.184C511.459 134.32 515.282 130.685 521.716 130.685C529.549 130.685 536.263 134.04 536.263 147.369V172.815H526.285V149.327C526.285 142.616 524.887 138.98 518.825 138.98C514.349 138.98 511.832 140.751 510.06 142.709V172.815H500.082ZM563.865 173.748C555.846 173.748 549.318 170.206 549.318 162.003C549.318 152.496 557.804 149.979 566.29 149.979C570.579 149.979 575.148 150.725 577.573 151.47V148.115C577.573 142.802 576.64 138.608 568.994 138.608C563.212 138.608 559.855 140.938 559.855 145.785H550.437C550.437 134.506 559.669 130.685 569.647 130.685C580.37 130.685 587.55 135.252 587.55 146.81V163.867C587.55 165.452 588.11 166.011 589.789 166.011C590.908 166.011 592.586 165.732 593.705 165.452V172.07C592.027 172.815 588.856 173.748 585.779 173.748C580.557 173.748 579.065 171.044 579.065 167.969V167.223C576.92 169.926 572.351 173.748 563.865 173.748ZM566.196 166.291C571.418 166.291 575.521 164.52 577.573 162.842V157.622C575.801 157.156 571.978 156.783 568.434 156.783C562.933 156.783 559.296 157.809 559.296 161.724C559.296 164.893 561.627 166.291 566.196 166.291ZM604.522 172.815V112.509H614.5V147.183L632.404 131.617H645.645L627.835 146.717L646.671 172.815H634.642L620.748 152.216L614.5 157.249V172.815H604.522ZM675.392 173.748C663.456 173.748 653.665 167.875 653.665 152.403C653.665 135.904 664.668 130.685 674.832 130.685C685.37 130.685 696 135.904 696 152.216V154.453H663.736C664.015 161.63 667.559 166.011 675.578 166.011C681.08 166.011 684.903 163.774 685.649 159.766H695.907C693.949 170.392 684.344 173.748 675.392 173.748ZM663.922 147.462H685.743C684.903 141.124 680.241 138.421 674.832 138.421C669.424 138.421 664.761 141.124 663.922 147.462Z" fill="#E6E6E6"/>
</svg>
