<svg width="700" height="298" viewBox="0 0 700 298" fill="none" xmlns="http://www.w3.org/2000/svg">
<path d="M302.531 79.7012H325.063V212.537H302.531V79.7012ZM347.595 79.7012H393.544C403.544 79.7012 411.898 80.8398 418.354 82.9905C424.81 85.1412 430 88.1774 433.67 91.9727C437.313 95.56 440.009 99.9934 441.519 104.877C443.044 109.836 443.813 114.996 443.797 120.184C443.821 125.705 443.054 131.201 441.519 136.504C440.022 141.615 437.332 146.298 433.67 150.167C429.356 154.398 424.111 157.561 418.354 159.402C411.898 161.68 403.797 162.818 393.924 162.818H369.746V212.537H347.595V79.7012ZM393.417 144.221C398.156 144.361 402.89 143.807 407.468 142.577C410.672 141.73 413.624 140.124 416.076 137.896C418.159 135.872 419.685 133.344 420.506 130.558C421.341 127.421 421.766 124.19 421.772 120.943C421.846 117.651 421.419 114.366 420.506 111.202C419.665 108.504 418.086 106.094 415.949 104.244C413.401 102.168 410.415 100.697 407.215 99.9428C402.703 98.8302 398.063 98.3198 393.417 98.4247H370V144.221H393.417ZM545.189 79.7012V99.0573H482.911V136.631H541.519V156.113H482.911V212.537H460.379V79.7012H545.189ZM578.354 171.927C579.367 180.656 582.531 186.982 587.721 190.903C592.911 194.825 600.886 196.849 611.265 196.849C615.587 196.974 619.901 196.419 624.05 195.205C627.083 194.252 629.914 192.751 632.405 190.777C634.439 189.015 635.967 186.745 636.835 184.198C637.716 181.591 638.144 178.853 638.101 176.102C638.126 174.002 637.827 171.911 637.215 169.903C636.517 167.801 635.397 165.864 633.924 164.21C632.079 162.297 629.889 160.752 627.468 159.656C624.145 158.224 620.659 157.204 617.088 156.619L600.126 153.457C594.06 152.382 588.091 150.817 582.278 148.776C577.487 147.135 573.028 144.65 569.114 141.438C565.58 138.439 562.841 134.615 561.139 130.305C559.24 125.167 558.338 119.714 558.481 114.238C558.279 108.692 559.485 103.186 561.986 98.2309C564.487 93.2761 568.202 89.0342 572.784 85.9002C577.6 82.5434 583.014 80.1386 588.734 78.8157C595.284 77.2524 602 76.4878 608.734 76.5385C617.848 76.5385 625.569 77.5506 631.772 79.7012C637.288 81.4182 642.408 84.2133 646.835 87.9244C650.529 91.2004 653.503 95.2066 655.569 99.6898C657.548 104.122 658.91 108.804 659.62 113.606L638.354 116.895C636.582 109.431 633.671 103.991 629.367 100.322C625.063 96.6536 618.354 94.8824 608.987 94.8824C604.517 94.8103 600.054 95.2775 595.696 96.274C592.6 97.0135 589.677 98.3453 587.088 100.196C585.052 101.701 583.439 103.705 582.405 106.015C581.495 108.179 581.022 110.5 581.012 112.847C581.012 118.666 582.531 122.968 585.696 125.877C588.86 128.787 594.43 130.938 602.405 132.582L620.759 136.125C634.81 138.781 645.063 143.209 651.645 149.408C658.227 155.607 661.519 164.716 661.519 176.481C661.563 181.82 660.53 187.112 658.481 192.042C656.426 196.882 653.208 201.14 649.114 204.44C644.47 208.211 639.14 211.046 633.417 212.79C626.322 214.94 618.932 215.965 611.519 215.826C594.557 215.826 581.139 212.284 571.519 205.073C561.898 197.862 556.455 186.855 555.569 171.927H578.354Z" fill="#E6E6E6"/>
<path d="M38.3545 207.476L144.684 268.834L251.013 207.476V84.7616L144.684 23.4043L38.3545 84.7616V207.476Z" fill="#B3B3B3"/>
<path d="M133.798 38.0796L56.5824 82.6111C56.7089 83.9998 56.7089 85.3972 56.5824 86.7859L133.671 131.317C136.841 128.975 140.678 127.711 144.62 127.711C148.562 127.711 152.4 128.975 155.57 131.317L232.658 86.7859C232.532 85.3972 232.532 83.9998 232.658 82.6111L155.696 38.0796C152.527 40.4217 148.689 41.6857 144.747 41.6857C140.805 41.6857 136.967 40.4217 133.798 38.0796ZM240.127 99.0574L162.911 144.095C163.33 148.001 162.503 151.939 160.547 155.347C158.592 158.755 155.61 161.459 152.025 163.071L152.152 251.628C153.4 252.179 154.588 252.857 155.696 253.652L232.785 209.121C232.366 205.215 233.194 201.276 235.149 197.868C237.104 194.46 240.087 191.757 243.671 190.144V101.082C242.437 100.503 241.252 99.8263 240.127 99.0574ZM49.2406 99.5634C48.1325 100.359 46.9446 101.037 45.6963 101.588V190.651C49.3244 192.206 52.3482 194.898 54.3118 198.321C56.2754 201.744 57.0723 205.712 56.5824 209.627L133.671 254.158C134.779 253.363 135.967 252.685 137.215 252.134V163.071C133.587 161.516 130.563 158.824 128.6 155.401C126.636 151.978 125.839 148.01 126.329 144.095L49.2406 99.5634Z" fill="#CACACA"/>
<path d="M144.684 36.688L239.747 91.5933V201.277L144.684 256.183L49.6203 201.277V91.4668L144.684 36.688ZM144.684 23.6575L38.3545 85.0148V207.729L144.684 269.087L251.013 207.729V85.0148L144.684 23.6575Z" fill="#B3B3B3"/>
<path d="M145.443 166.993H143.924C141.312 167 138.725 166.491 136.311 165.495C133.897 164.499 131.703 163.036 129.857 161.191C128.01 159.345 126.546 157.153 125.55 154.74C124.553 152.327 124.044 149.741 124.051 147.131V145.613C124.044 143.003 124.553 140.417 125.55 138.004C126.546 135.591 128.01 133.399 129.857 131.554C131.703 129.708 133.897 128.245 136.311 127.249C138.725 126.253 141.312 125.744 143.924 125.751H145.443C148.055 125.744 150.642 126.253 153.056 127.249C155.47 128.245 157.664 129.708 159.511 131.554C161.357 133.399 162.821 135.591 163.817 138.004C164.814 140.417 165.323 143.003 165.317 145.613V147.131C165.323 149.741 164.814 152.327 163.817 154.74C162.821 157.153 161.357 159.345 159.511 161.191C157.664 163.036 155.47 164.499 153.056 165.495C150.642 166.491 148.055 167 145.443 166.993ZM145.443 248.592H143.924C140.393 248.581 136.924 249.514 133.875 251.294C130.826 253.073 128.308 255.634 126.582 258.713L144.684 269.087L162.785 258.713C161.059 255.634 158.541 253.073 155.492 251.294C152.443 249.514 148.974 248.581 145.443 248.592ZM251.139 187.235H250.38C247.768 187.228 245.181 187.737 242.767 188.733C240.353 189.729 238.159 191.192 236.312 193.037C234.466 194.883 233.002 197.075 232.006 199.488C231.009 201.901 230.5 204.487 230.506 207.097V208.615C230.488 211.987 231.362 215.304 233.038 218.23L251.139 207.729V187.235ZM233.038 74.641C231.376 77.5731 230.504 80.8859 230.506 84.2557V85.7738C230.5 88.384 231.009 90.9698 232.006 93.3826C233.002 95.7954 234.466 97.9876 236.312 99.8333C238.159 101.679 240.353 103.142 242.767 104.138C245.181 105.133 247.768 105.643 250.38 105.636H251.139V85.0148L233.038 74.641ZM144.684 23.6575L126.582 34.0313C128.3 37.1263 130.813 39.7074 133.861 41.5087C136.909 43.3099 140.383 44.2661 143.924 44.2786H145.443C148.974 44.2892 152.443 43.3565 155.492 41.5771C158.541 39.7977 161.059 37.2362 162.785 34.1578L144.684 23.6575ZM56.4558 74.5145L38.3545 85.0148V105.636H39.114C41.7257 105.643 44.3129 105.133 46.7271 104.138C49.1413 103.142 51.3348 101.679 53.1815 99.8333C55.0283 97.9876 56.4919 95.7954 57.4882 93.3826C58.4846 90.9698 58.9941 88.384 58.9874 85.7738V84.2557C58.9445 80.8517 58.0758 77.509 56.4558 74.5145ZM39.114 187.235H38.3545V207.729L56.4558 218.23C58.1174 215.298 58.9897 211.985 58.9874 208.615V207.097C58.9941 204.487 58.4846 201.901 57.4882 199.488C56.4919 197.075 55.0283 194.883 53.1815 193.037C51.3348 191.192 49.1413 189.729 46.7271 188.733C44.3129 187.737 41.7257 187.228 39.114 187.235Z" fill="#B3B3B3"/>
<path d="M144.684 269.719V146.878L38.3545 85.5208V208.362L144.684 269.719Z" fill="#313131" fill-opacity="0.15"/>
<path d="M251.14 207.223V84.5085L144.811 145.866V268.707L251.14 207.223Z" fill="#313131" fill-opacity="0.05"/>
</svg>
