<svg width="700" height="245" viewBox="0 0 700 245" fill="none" xmlns="http://www.w3.org/2000/svg">
<path d="M136.241 89.7098C133.396 87.9827 129.739 87.9827 126.589 89.7098L104.543 103.121L89.5065 111.858L67.4601 125.269C64.6154 126.996 60.9579 126.996 57.8084 125.269L40.2322 114.804C37.3875 113.077 35.4572 109.826 35.4572 106.372V85.7476C35.4572 82.2933 37.1843 79.0422 40.2322 77.3151L57.5036 67.1554C60.3483 65.4283 64.0058 65.4283 67.1553 67.1554L84.4267 77.3151C87.2714 79.0422 89.2017 82.2933 89.2017 85.7476V99.1583L104.238 90.1162V76.7055C104.238 73.2512 102.511 70.0001 99.463 68.273L67.4601 49.0712C64.6154 47.3441 60.9579 47.3441 57.8084 49.0712L25.2975 68.273C22.148 70.0001 20.5225 73.2512 20.5225 76.7055V115.312C20.5225 118.766 22.2496 122.018 25.2975 123.745L57.8084 142.946C60.6531 144.674 64.3106 144.674 67.4601 142.946L89.5065 129.84L104.543 120.798L126.589 107.692C129.434 105.965 133.091 105.965 136.241 107.692L153.512 117.852C156.357 119.579 158.287 122.83 158.287 126.285V146.909C158.287 150.363 156.56 153.614 153.512 155.341L136.241 165.806C133.396 167.533 129.739 167.533 126.589 165.806L109.318 155.646C106.473 153.919 104.543 150.668 104.543 147.213V133.803L89.5065 142.845V156.256C89.5065 159.71 91.2336 162.961 94.2815 164.688L126.792 183.89C129.637 185.617 133.295 185.617 136.444 183.89L168.955 164.688C171.8 162.961 173.73 159.71 173.73 156.256V117.649C173.73 114.195 172.003 110.944 168.955 109.216L136.241 89.7098Z" fill="white"/>
<path d="M233.672 172.816V140.711C237.126 145.08 243.425 147.518 250.639 147.518C269.129 147.518 281.727 134.209 281.727 113.991C281.727 93.7735 270.247 80.4644 252.163 80.4644C243.832 80.4644 237.431 83.5123 233.672 88.5921V81.4803H215.893V172.714H233.672V172.816ZM248.505 132.075C238.955 132.075 232.656 124.862 232.656 113.991C232.656 103.019 238.955 95.8054 248.505 95.8054C257.852 95.8054 264.253 103.019 264.253 113.991C264.151 124.862 257.75 132.075 248.505 132.075Z" fill="#E6E6E6"/>
<path d="M322.061 147.518C341.873 147.518 356.096 133.295 356.096 113.991C356.096 94.6879 341.873 80.4644 322.061 80.4644C302.25 80.4644 288.026 94.6879 288.026 113.991C288.026 133.295 302.25 147.518 322.061 147.518ZM322.061 132.075C312.511 132.075 305.907 124.76 305.907 113.991C305.907 103.12 312.41 95.8054 322.061 95.8054C331.611 95.8054 338.215 103.12 338.215 113.991C338.215 124.76 331.611 132.075 322.061 132.075Z" fill="#E6E6E6"/>
<path d="M384.543 146.502V53.3381H366.764V146.502H384.543Z" fill="#E6E6E6"/>
<path d="M437.983 81.582L424.572 123.44L411.06 81.582H392.874L416.241 145.994L406.793 172.816H423.759L432.801 146.299L456.169 81.582H437.983Z" fill="#E6E6E6"/>
<path d="M506.255 87.9825C502.699 83.5122 496.299 80.4644 488.476 80.4644C469.681 80.4644 458.302 93.7735 458.302 113.991C458.302 134.209 469.681 147.518 488.781 147.518C496.299 147.518 503.106 144.673 506.459 139.898V148.432C506.459 154.528 502.496 158.694 497.112 158.694H467.344V172.714H499.855C514.383 172.714 524.136 163.773 524.136 150.261V81.4803H506.255V87.9825ZM491.524 132.075C482.075 132.075 475.776 124.964 475.776 113.991C475.776 103.019 482.075 95.8054 491.524 95.8054C501.074 95.8054 507.373 103.019 507.373 113.991C507.373 124.964 501.074 132.075 491.524 132.075Z" fill="#E6E6E6"/>
<path d="M568.94 147.518C588.751 147.518 602.975 133.295 602.975 113.991C602.975 94.6879 588.751 80.4644 568.94 80.4644C549.129 80.4644 534.905 94.6879 534.905 113.991C534.905 133.295 549.129 147.518 568.94 147.518ZM568.94 132.075C559.39 132.075 552.786 124.76 552.786 113.991C552.786 103.12 559.288 95.8054 568.94 95.8054C578.49 95.8054 585.094 103.12 585.094 113.991C584.992 124.76 578.49 132.075 568.94 132.075Z" fill="#E6E6E6"/>
<path d="M630.508 146.502V110.944C630.508 102.613 635.994 96.5168 643.817 96.5168C651.234 96.5168 656.212 102.206 656.212 110.029V146.502H674.093V106.067C674.093 91.1322 664.644 80.5662 650.014 80.5662C641.176 80.5662 634.064 84.3253 630.406 90.6242V81.5821H612.627V146.502H630.508Z" fill="#E6E6E6"/>
</svg>
