<svg width="700" height="270" viewBox="0 0 700 270" fill="none" xmlns="http://www.w3.org/2000/svg">
<path d="M356.821 112.982C353.463 116.34 353.323 118.299 356.262 122.497C358.78 126.274 363.958 126.554 367.036 123.056C370.115 119.698 369.975 115.361 366.896 112.562C363.398 109.484 360.18 109.624 356.821 112.982Z" fill="#E6E6E6"/>
<path d="M544.048 111.723C542.369 112.563 541.529 114.801 541.529 118.019C541.529 121.797 542.229 123.196 545.028 124.455C549.365 126.414 555.382 124.036 555.662 120.398C556.222 111.863 550.765 107.805 544.048 111.723Z" fill="#E6E6E6"/>
<path d="M333.033 124.176V136.908L328.835 134.669C319.18 129.632 307.426 133.69 302.248 143.624C292.733 162.513 309.944 184.899 327.436 176.224C331.773 174.126 333.033 173.986 333.033 175.385C333.033 176.784 334.852 177.344 339.33 177.344H345.626V144.463V111.583H339.33H333.033V124.176ZM331.074 146.702C332.333 148.101 333.453 151.739 333.593 155.097C333.872 165.731 322.678 171.327 315.542 164.052C309.525 158.175 310.924 147.542 317.92 144.463C322.958 142.365 327.855 143.204 331.074 146.702Z" fill="#E6E6E6"/>
<path d="M19.5898 126.274V138.167H31.4839H43.378V157.755V177.344H55.9717H68.5654V145.863V114.381H44.0776H19.5898V126.274Z" fill="#E6E6E6"/>
<path d="M82.1382 116.62C77.9403 118.859 75.5615 123.476 75.5615 129.353C75.5615 134.529 83.9573 142.365 89.5545 142.365C95.2917 142.365 103.548 134.529 103.548 129.073C103.548 117.879 92.0733 111.163 82.1382 116.62Z" fill="#E6E6E6"/>
<path d="M115.441 115.921C114.882 116.76 108.865 130.752 102.148 146.982L89.6943 176.644L103.128 177.064C110.544 177.204 116.701 177.204 117.121 176.924C117.82 176.084 140.769 121.517 142.028 117.46C142.868 114.381 142.728 114.381 129.574 114.381C121.598 114.381 116.001 114.941 115.441 115.921Z" fill="#E6E6E6"/>
<path d="M169.315 120.678V126.974H177.711H186.107V152.159V177.344H192.404H198.701V152.159V126.974H207.097H215.492V120.678V114.381H192.404H169.315V120.678Z" fill="#E6E6E6"/>
<path d="M474.782 116.06C476.741 121.237 489.195 151.459 492.833 159.854C495.072 165.171 497.591 171.327 498.43 173.426C499.69 176.784 500.529 177.344 505.567 177.344H511.444L518.72 159.434C522.638 149.64 528.375 135.649 531.454 128.373L536.911 115.081L531.454 114.661C528.375 114.381 525.157 114.521 524.178 114.801C523.338 115.221 518.86 125.015 514.243 136.628C504.587 160.974 506.686 161.393 495.352 132.85L487.936 114.381H480.939C476.042 114.381 474.223 114.941 474.782 116.06Z" fill="#E6E6E6"/>
<path d="M215.492 154.957V177.344H221.789H228.086V164.192C228.086 148.381 230.185 144.463 238.441 144.743L243.478 144.883V138.727C243.478 132.85 243.338 132.571 239.42 132.571C237.321 132.571 233.823 133.83 231.724 135.509L228.086 138.307V135.509C228.086 132.99 227.246 132.571 221.789 132.571H215.492V154.957Z" fill="#E6E6E6"/>
<path d="M256.351 135.369C249.495 139.566 246.276 145.863 246.276 155.097C246.276 163.772 249.355 169.788 256.491 175.105C262.088 179.163 271.744 178.883 276.361 174.545L279.86 171.327V174.266C279.86 176.924 280.699 177.344 285.457 177.344H291.054V154.957V132.571H285.457C280.699 132.571 279.86 132.99 279.86 135.509V138.307L276.221 135.509C271.324 131.731 262.508 131.731 256.351 135.369ZM273.003 143.764C276.221 143.764 279.86 149.64 279.86 154.957C279.86 161.533 274.822 167.55 269.365 167.55C261.389 167.55 255.512 157.336 259.15 149.78C261.109 145.583 266.846 141.945 269.785 143.064C270.904 143.484 272.303 143.764 273.003 143.764Z" fill="#E6E6E6"/>
<path d="M356.821 154.957V177.344H362.418H368.016V154.957V132.571H362.418H356.821V154.957Z" fill="#E6E6E6"/>
<path d="M379.21 154.957V177.344H385.507H391.804V162.792C391.804 145.303 393.483 142.505 402.998 143.764C407.476 144.184 408.595 148.381 408.595 162.932V177.344H414.892H421.189V162.653C421.189 145.583 418.81 137.747 412.653 134.669C407.616 132.011 398.8 132.011 395.022 134.669C392.363 136.488 391.944 136.488 391.244 134.669C390.824 133.27 388.585 132.571 384.807 132.571H379.21V154.957Z" fill="#E6E6E6"/>
<path d="M438.4 135.509C433.363 138.727 428.186 148.241 428.186 154.398C428.186 160.694 433.783 170.628 439.1 173.706C444.837 176.924 453.513 177.064 458.271 173.986C461.629 171.747 461.769 171.747 461.769 174.965C461.769 176.924 460.509 180.002 458.83 182.101C455.472 186.438 447.496 187.138 440.499 183.5C436.301 181.261 436.162 181.401 433.083 185.319C431.264 187.418 430.145 189.656 430.564 190.356C434.203 196.232 457.291 198.331 464.008 193.294C473.243 186.438 473.663 185.039 474.083 157.616L474.502 132.571H468.206C463.308 132.571 461.769 133.13 461.769 134.809C461.769 136.768 461.489 136.768 458.69 134.809C454.213 131.591 443.858 132.011 438.4 135.509ZM460.369 147.682C464.287 152.579 463.868 157.336 459.11 162.093C454.492 166.71 452.114 166.99 446.516 164.052C442.179 161.953 440.779 159.434 440.779 154.258C440.779 148.941 442.318 146.422 446.656 144.463C452.114 142.225 457.011 143.344 460.369 147.682Z" fill="#E6E6E6"/>
<path d="M542.928 154.957V177.344H548.525H554.122V154.957V132.571H548.525H542.928V154.957Z" fill="#E6E6E6"/>
<path d="M573.713 135.649C563.498 142.645 560.28 152.719 564.617 164.192C567.976 173.146 575.672 178.043 586.307 178.043C592.603 178.043 595.402 177.204 600.02 174.126C603.238 172.027 605.897 169.788 605.897 169.089C605.897 168.249 604.078 166.43 601.699 164.751L597.641 161.813L593.443 164.891C588.825 168.389 582.109 167.829 577.631 163.772C572.034 158.735 574.273 157.755 591.204 157.755H607.296V152.439C607.296 145.443 603.238 138.307 597.361 135.089C590.505 131.451 579.59 131.731 573.713 135.649ZM592.324 144.324C597.081 147.961 594.982 149.361 584.907 149.361C574.692 149.361 573.013 148.241 578.191 144.603C581.969 141.945 588.965 141.805 592.324 144.324Z" fill="#E6E6E6"/>
<path d="M610.374 134.25C610.794 135.229 614.152 145.303 617.93 156.636L624.647 177.344H630.664H636.541L640.319 165.451C642.558 159.015 644.517 153.978 644.937 154.397C645.496 154.817 647.455 159.994 649.414 165.871L653.052 176.644L659.209 177.064L665.366 177.484L669.284 165.171C671.383 158.315 674.602 148.241 676.421 142.645L679.779 132.571H672.923C668.305 132.571 666.066 133.13 666.066 134.25C666.066 135.229 664.387 141.805 662.288 148.801L658.51 161.533L653.752 146.982L649.134 132.431L644.657 132.85C640.459 133.27 640.179 133.69 635.841 147.262C633.322 154.957 630.944 160.274 630.524 159.155C630.104 158.035 628.145 151.599 626.046 144.743L622.408 132.571H616.111C611.633 132.571 609.954 133.13 610.374 134.25Z" fill="#E6E6E6"/>
</svg>
