<?xml version="1.0" standalone="no"?>
<!DOCTYPE svg PUBLIC "-//W3C//DTD SVG 20010904//EN"
 "http://www.w3.org/TR/2001/REC-SVG-20010904/DTD/svg10.dtd">
<svg version="1.0" xmlns="http://www.w3.org/2000/svg"
 width="500.000000pt" height="500.000000pt" viewBox="0 0 500.000000 500.000000"
 preserveAspectRatio="xMidYMid meet">

<g transform="translate(0.000000,500.000000) scale(0.100000,-0.100000)"
fill="#000000" stroke="none">
<path d="M2550 2790 c-24 -24 -25 -38 -4 -68 18 -27 55 -29 77 -4 22 24 21 55
-1 75 -25 22 -48 21 -72 -3z"/>
<path d="M3888 2799 c-12 -6 -18 -22 -18 -45 0 -27 5 -37 25 -46 31 -14 74 3
76 29 4 61 -35 90 -83 62z"/>
<path d="M2380 2710 l0 -91 -30 16 c-69 36 -153 7 -190 -64 -68 -135 55 -295
180 -233 31 15 40 16 40 6 0 -10 13 -14 45 -14 l45 0 0 235 0 235 -45 0 -45 0
0 -90z m-14 -161 c9 -10 17 -36 18 -60 2 -76 -78 -116 -129 -64 -43 42 -33
118 17 140 36 15 71 9 94 -16z"/>
<path d="M140 2695 l0 -85 85 0 85 0 0 -140 0 -140 90 0 90 0 0 225 0 225
-175 0 -175 0 0 -85z"/>
<path d="M587 2764 c-30 -16 -47 -49 -47 -91 0 -37 60 -93 100 -93 41 0 100
56 100 95 0 80 -82 128 -153 89z"/>
<path d="M825 2769 c-4 -6 -47 -106 -95 -222 l-89 -212 96 -3 c53 -1 97 -1
100 1 5 6 169 396 178 425 6 22 5 22 -89 22 -57 0 -97 -4 -101 -11z"/>
<path d="M1210 2735 l0 -45 60 0 60 0 0 -180 0 -180 45 0 45 0 0 180 0 180 60
0 60 0 0 45 0 45 -165 0 -165 0 0 -45z"/>
<path d="M3393 2768 c14 -37 103 -253 129 -313 16 -38 34 -82 40 -97 9 -24 15
-28 51 -28 l42 0 52 128 c28 70 69 170 91 222 l39 95 -39 3 c-22 2 -45 1 -52
-1 -6 -3 -38 -73 -71 -156 -69 -174 -54 -177 -135 27 l-53 132 -50 0 c-35 0
-48 -4 -44 -12z"/>
<path d="M1540 2490 l0 -160 45 0 45 0 0 94 c0 113 15 141 74 139 l36 -1 0 44
c0 42 -1 44 -29 44 -15 0 -40 -9 -55 -21 l-26 -20 0 20 c0 18 -6 21 -45 21
l-45 0 0 -160z"/>
<path d="M1832 2630 c-49 -30 -72 -75 -72 -141 0 -62 22 -105 73 -143 40 -29
109 -27 142 4 l25 23 0 -21 c0 -19 6 -22 40 -22 l40 0 0 160 0 160 -40 0 c-34
0 -40 -3 -40 -21 l0 -20 -26 20 c-35 27 -98 27 -142 1z m119 -60 c23 0 49 -42
49 -80 0 -47 -36 -90 -75 -90 -57 0 -99 73 -73 127 14 30 55 56 76 48 8 -3 18
-5 23 -5z"/>
<path d="M2550 2490 l0 -160 40 0 40 0 0 160 0 160 -40 0 -40 0 0 -160z"/>
<path d="M2710 2490 l0 -160 45 0 45 0 0 104 c0 125 12 145 80 136 32 -3 40
-33 40 -137 l0 -103 45 0 45 0 0 105 c0 122 -17 178 -61 200 -36 19 -99 19
-126 0 -19 -13 -22 -13 -27 0 -3 10 -19 15 -46 15 l-40 0 0 -160z"/>
<path d="M3133 2629 c-36 -23 -73 -91 -73 -135 0 -45 40 -116 78 -138 41 -23
103 -24 137 -2 24 16 25 16 25 -7 0 -14 -9 -36 -21 -51 -24 -31 -81 -36 -131
-10 -30 16 -31 15 -53 -13 -13 -15 -21 -31 -18 -36 26 -42 191 -57 239 -21 66
49 69 59 72 255 l3 179 -45 0 c-35 0 -46 -4 -46 -16 0 -14 -2 -14 -22 0 -32
23 -106 20 -145 -5z m157 -87 c28 -35 25 -69 -9 -103 -33 -33 -50 -35 -90 -14
-31 15 -41 33 -41 70 0 38 11 56 42 70 39 16 74 8 98 -23z"/>
<path d="M3880 2490 l0 -160 40 0 40 0 0 160 0 160 -40 0 -40 0 0 -160z"/>
<path d="M4100 2628 c-73 -50 -96 -122 -65 -204 24 -64 79 -99 155 -99 45 0
65 6 98 28 23 15 42 31 42 36 0 6 -13 19 -30 31 l-29 21 -30 -22 c-33 -25 -81
-21 -113 8 -40 36 -24 43 97 43 l115 0 0 38 c0 50 -29 101 -71 124 -49 26
-127 24 -169 -4z m133 -62 c34 -26 19 -36 -53 -36 -73 0 -85 8 -48 34 27 19
77 20 101 2z"/>
<path d="M4362 2638 c3 -7 27 -79 54 -160 l48 -148 43 0 42 0 27 85 c16 46 30
82 33 79 4 -3 18 -40 32 -82 l26 -77 44 -3 44 -3 28 88 c15 49 38 121 51 161
l24 72 -49 0 c-33 0 -49 -4 -49 -12 0 -7 -12 -54 -27 -104 l-27 -91 -34 104
-33 104 -32 -3 c-30 -3 -32 -6 -63 -103 -18 -55 -35 -93 -38 -85 -3 8 -17 54
-32 103 l-26 87 -45 0 c-32 0 -44 -4 -41 -12z"/>
</g>
</svg>
