<svg width="700" height="159" viewBox="0 0 700 159" fill="none" xmlns="http://www.w3.org/2000/svg">
<g clip-path="url(#clip0_39_182)">
<path d="M349.208 39.5894C321.873 39.5894 302.165 57.4046 302.165 84.1275C302.165 110.85 324.349 128.666 351.684 128.666C368.198 128.666 382.757 122.133 391.769 111.122L372.828 100.186C367.827 105.654 360.226 108.846 351.684 108.846C339.824 108.846 329.747 102.66 326.008 92.7629H395.384C395.929 89.9916 396.251 87.1214 396.251 84.1027C396.251 57.4046 376.542 39.5894 349.208 39.5894ZM325.785 75.4673C328.88 65.5947 337.348 59.3841 349.183 59.3841C361.043 59.3841 369.511 65.5947 372.581 75.4673H325.785ZM615.818 39.5894C588.483 39.5894 568.775 57.4046 568.775 84.1275C568.775 110.85 590.959 128.666 618.294 128.666C634.808 128.666 649.367 122.133 658.379 111.122L639.438 100.186C634.437 105.654 626.836 108.846 618.294 108.846C606.434 108.846 596.357 102.66 592.618 92.7629H661.994C662.539 89.9916 662.861 87.1214 662.861 84.1027C662.861 57.4046 643.152 39.5894 615.818 39.5894ZM592.42 75.4673C595.515 65.5947 603.983 59.3841 615.818 59.3841C627.678 59.3841 636.145 65.5947 639.216 75.4673H592.42ZM495.784 84.1275C495.784 98.9735 505.49 108.871 520.543 108.871C530.744 108.871 538.395 104.244 542.332 96.6971L561.347 107.658C553.473 120.772 538.717 128.666 520.543 128.666C493.184 128.666 473.5 110.85 473.5 84.1275C473.5 57.4046 493.209 39.5894 520.543 39.5894C538.717 39.5894 553.449 47.4825 561.347 60.5965L542.332 71.5578C538.395 64.0111 530.744 59.3841 520.543 59.3841C505.514 59.3841 495.784 69.2814 495.784 84.1275ZM700 12.3717V126.191H677.717V12.3717H700ZM91.4863 0L182.973 158.358H0L91.4863 0ZM320.214 12.3717L251.606 131.14L182.997 12.3717H208.722L251.606 86.6018L294.489 12.3717H320.214ZM466.072 42.0637V66.0401C463.597 65.3225 460.972 64.8276 458.149 64.8276C443.764 64.8276 433.39 74.725 433.39 89.571V126.191H411.106V42.0637H433.39V64.8276C433.39 52.258 448.023 42.0637 466.072 42.0637Z" fill="#E6E6E6"/>
</g>
<defs>
<clipPath id="clip0_39_182">
<rect width="700" height="158.491" fill="white"/>
</clipPath>
</defs>
</svg>
